<?xml version="1.0" encoding="utf-8"?>
<!-- Generator: Adobe Illustrator 26.5.1, SVG Export Plug-In . SVG Version: 6.00 Build 0)  -->
<svg version="1.1" id="Layer_1" xmlns="http://www.w3.org/2000/svg" xmlns:xlink="http://www.w3.org/1999/xlink" x="0px" y="0px"
	 viewBox="0 0 512 512" style="enable-background:new 0 0 512 512;" xml:space="preserve">
<style type="text/css">
	.st0{fill:none;stroke:#C1E8FB;stroke-width:3;stroke-miterlimit:10;}
</style>
<g>
	
		<image style="overflow:visible;opacity:0.75;" width="175" height="528" xlink:href="13157515.png"  transform="matrix(1 0 0 1 300 -5)">
	</image>
	<g>
		<path class="st0" d="M387.5,506c-39,0-70.5-31.6-70.5-70.5v0V82.8c0-39,31.6-70.5,70.5-70.5S458,43.9,458,82.8v352.7
			C458,474.4,426.4,506,387.5,506C387.5,506,387.5,506,387.5,506z"/>
	</g>
</g>
<g>
	
		<image style="overflow:visible;opacity:0.75;" width="175" height="528" xlink:href="13157517.png"  transform="matrix(1 0 0 1 32 -5)">
	</image>
	<g>
		<path class="st0" d="M119.4,506c-39,0-70.5-31.6-70.5-70.5c0,0,0,0,0,0V82.8c0-39,31.6-70.5,70.5-70.5s70.5,31.6,70.5,70.5v352.7
			C189.9,474.4,158.3,506,119.4,506C119.4,506,119.4,506,119.4,506z"/>
	</g>
</g>
</svg>
